{"title":"Soldiers of Fortune 2012 BRRip XviD AC3-NYDIC","uid":7446000,"size":2476914940,"categoryP":"video","categoryS":"hd___movies","magnet":"?xt=urn:btih:b759bca488eb2b765f81f63f7539096579f0bc8e&amp;dn=Soldiers+of+Fortune+2012+BRRip+XviD+AC3-NYDIC&amp;tr=udp%3A%2F%2Ftracker.openbittorrent.com%3A80&amp;tr=udp%3A%2F%2Fopen.demonii.com%3A1337&amp;tr=udp%3A%2F%2Ftracker.coppersurfer.tk%3A6969&amp;tr=udp%3A%2F%2Fexodus.desync.com%3A6969","seeders":1,"leechers":1,"uploader":"tykoon123","files":-1,"time":1342371832,"description":"Cover:\n\nInfo:\n\nFormat : AVI\nFormat/Info : Audio Video Interleave\nFormat profile : OpenDML\nFormat settings : rec\nFile size : 2.31 GiB\nDuration : 1h 33mn\nOverall bit rate : 3 521 Kbps\nWriting application : AVI-Mux GUI 1.17.8.3, Feb 16 201019:42:50\n\nVideo\nID : 0\nFormat : MPEG-4 Visual\nFormat profile : Simple@L1\nFormat settings, BVOP : No\nFormat settings, QPel : No\nFormat settings, GMC : No warppoints\nFormat settings, Matrix : Default (H.263)\nCodec ID : DX50\nCodec ID/Hint : DivX 5\nDuration : 1h 33mn\nBit rate : 3 067 Kbps\nWidth : 1 280 pixels\nHeight : 544 pixels\nDisplay aspect ratio : 2.35:1\nFrame rate : 23.976 fps\nColor space : YUV\nChroma subsampling : 4:2:0\nBit depth : 8 bits\nScan type : Progressive\nCompression mode : Lossy\nBits/(Pixel*Frame) : 0.184\nStream size : 2.01 GiB (87%)\nWriting library : Lavc52.0.0\n\nAudio\nID : 1\nFormat : AC-3\nFormat/Info : Audio Coding 3\nMode extension : CM (complete main)\nFormat settings, Endianness : Big\nCodec ID : 2000\nDuration : 1h 33mn\nBit rate mode : Constant\nBit rate : 448 Kbps\nChannel(s) : 6 channels\nChannel positions : Front: L C R, Side: L R, LFE\nSampling rate : 48.0 KHz\nBit depth : 16 bits\nCompression mode : Lossy\nStream size : 301 MiB (13%)\nAlignment : Aligned on interleaves\nInterleave, duration : 64 ms (1.53 video frames)\nInterleave, preload duration : 192 ms\nTitle : final\n\nSCREENS:\n","torrent":{"xt":"urn:btih:b759bca488eb2b765f81f63f7539096579f0bc8e","amp;dn":"Soldiers+of+Fortune+2012+BRRip+XviD+AC3-NYDIC","amp;tr":["udp%3A%2F%2Ftracker.openbittorrent.com%3A80","udp%3A%2F%2Fopen.demonii.com%3A1337","udp%3A%2F%2Ftracker.coppersurfer.tk%3A6969","udp%3A%2F%2Fexodus.desync.com%3A6969"],"infoHash":"b759bca488eb2b765f81f63f7539096579f0bc8e","infoHashBuffer":{"type":"Buffer","data":[183,89,188,164,136,235,43,118,95,129,246,63,117,57,9,101,121,240,188,142]},"announce":[],"urlList":[]}}